<?xml version="1.0" encoding="UTF-8"?>
<svg id="Capa_2" data-name="Capa 2" xmlns="http://www.w3.org/2000/svg" viewBox="0 0 128.97 134.64">
  <defs>
    <style>
      .cls-1 {
        fill: #fff;
      }

      .cls-2 {
        fill: #e80038;
      }
    </style>
  </defs>
  <g id="Capa_2-2" data-name="Capa 2">
    <path d="M107.67,134.64H21.35c3.84-3.08,17.19-8.93,18.82-17,1.35-6.68-.06-12.18-1.32-15.54h51.32c-1.63,2.7-4.42,8.39-3.12,15.61,1.61,8.89,17.02,14.76,20.62,16.93Z"/>
    <path class="cls-2" d="M16.07,0h96.81c8.87,0,16.07,7.2,16.07,16.07v7.93H0v-7.93C0,7.2,7.2,0,16.07,0Z"/>
    <path d="M89.9,102.1h-50.85c-6.46-4.9-19.71-16.56-29.29-39.05C3.23,47.71.91,33.22,0,24h128.95c0,8.16-.82,23.13-6.92,39.05-9.97,26.02-27.04,36.29-32.14,39.05Z"/>
    <path class="cls-2" d="M127.69,41.08c1.04-3.54.93-6.85,1.27-9.76H.92c.71,2.97.96,6.27,2.32,9.76h124.45Z"/>
    <path class="cls-2" d="M24.21,87.49c5.83,7.28,11.33,11.95,14.84,14.61h50.85c3.03-1.64,10.29-5.94,17.77-14.61H24.21Z"/>
    <polygon class="cls-2" points="29.69 87.49 24.21 87.49 13.71 40.86 20.57 40.86 29.69 87.49"/>
    <polygon class="cls-2" points="38.45 87.49 32.96 87.49 24.66 40.86 31.53 40.86 38.45 87.49"/>
    <polygon class="cls-2" points="97.5 87.49 92.02 87.49 98.58 40.86 105.44 40.86 97.5 87.49"/>
    <polygon class="cls-2" points="107.67 87.49 102.19 87.49 111.31 40.86 118.17 40.86 107.67 87.49"/>
    <path class="cls-2" d="M60.71,134.64v-28.37h-9.2c.8,4.51,2.73,19.74-5.45,28.37h14.65Z"/>
    <path class="cls-2" d="M79.65,106.28h-9.2v28.37h14.65c-8.18-8.63-6.25-23.86-5.45-28.37Z"/>
    <path class="cls-1" d="M64.51,80.69c-2.34,0-4.39-.49-6.14-1.46-1.75-.97-3.11-2.35-4.08-4.12s-1.45-3.84-1.45-6.2v-9.05c0-2.37.48-4.44,1.45-6.21.97-1.76,2.33-3.13,4.08-4.11,1.75-.97,3.8-1.46,6.14-1.46s4.39.49,6.14,1.46,3.11,2.34,4.08,4.11c.97,1.77,1.45,3.83,1.45,6.21v9.05c0,2.36-.48,4.42-1.45,6.2s-2.33,3.15-4.08,4.12c-1.75.97-3.8,1.46-6.14,1.46ZM64.51,74.67c1.64,0,2.96-.51,3.94-1.54.99-1.03,1.48-2.38,1.48-4.06v-9.36c0-1.7-.49-3.06-1.48-4.08-.99-1.02-2.3-1.53-3.94-1.53s-2.96.51-3.94,1.53c-.99,1.02-1.48,2.38-1.48,4.08v9.36c0,1.68.49,3.04,1.48,4.06.99,1.03,2.3,1.54,3.94,1.54Z"/>
  </g>
</svg>