<?xml version="1.0" encoding="UTF-8"?>
<svg id="Capa_2" data-name="Capa 2" xmlns="http://www.w3.org/2000/svg" viewBox="0 0 118.71 189.84">
  <defs>
    <style>
      .cls-1 {
        fill: #fff;
      }

      .cls-2 {
        fill: #f4cc3c;
      }

      .cls-3 {
        fill: #ffe35c;
      }
    </style>
  </defs>
  <g id="Minion">
    <path class="cls-3" d="M118.71,17.64C110.53,12.31,89.76.36,60.68,0,30.03-.36,8.11,12.36,0,17.64c13.24,25.16,26.49,50.33,39.73,75.49h39.25L118.71,17.64Z"/>
    <path d="M39.73,160.55h15.66c-.44,3.69-3.57,29.29-7.83,29.29s-7.39-25.6-7.83-29.29Z"/>
    <path d="M63.32,160.55h15.66c-.44,3.69-3.57,29.29-7.83,29.29s-7.39-25.6-7.83-29.29Z"/>
    <g>
      <path class="cls-3" d="M59.36,163.31c-29.67,0-54.74-10.4-54.74-22.7s25.07-22.7,54.74-22.7,54.74,10.4,54.74,22.7-25.07,22.7-54.74,22.7Z"/>
      <path class="cls-2" d="M59.36,119.41c14.62,0,28.32,2.43,38.58,6.84,9.31,4.01,14.66,9.24,14.66,14.36s-5.34,10.35-14.66,14.36c-10.26,4.41-23.96,6.84-38.58,6.84s-28.32-2.43-38.58-6.84c-9.31-4.01-14.66-9.24-14.66-14.36s5.34-10.35,14.66-14.36c10.26-4.41,23.96-6.84,38.58-6.84M59.36,116.41c-31.06,0-56.24,10.83-56.24,24.2s25.18,24.2,56.24,24.2,56.24-10.83,56.24-24.2-25.18-24.2-56.24-24.2h0Z"/>
    </g>
    <rect x="39.73" y="59.26" width="39.25" height="70.98"/>
    <ellipse cx="59.36" cy="134.31" rx="41.59" ry="17.9"/>
    <circle class="cls-1" cx="59.36" cy="110.52" r="13.73"/>
    <circle class="cls-1" cx="59.36" cy="79.4" r="13.73"/>
    <circle cx="59.36" cy="79.4" r="5.69"/>
    <circle cx="59.36" cy="110.52" r="5.69"/>
    <path class="cls-2" d="M59.36,14.25c-20.06,0-37.56,11.19-46.58,27.66,1.56,2.96,3.11,5.91,4.67,8.87,6.62-16.69,22.91-28.52,41.92-28.52s35.3,11.84,41.92,28.52l4.67-8.87c-9.02-16.47-26.52-27.66-46.58-27.66Z"/>
  </g>
</svg>