<?xml version="1.0" encoding="UTF-8"?>
<svg id="Capa_1" data-name="Capa 1" xmlns="http://www.w3.org/2000/svg" viewBox="0 0 465.53 353.32">
  <defs>
    <style>
      .cls-1 {
        fill: #ffe266;
      }

      .cls-2 {
        fill: #fcc305;
      }
    </style>
  </defs>
  <path d="M463.82,279.87c-.58-24.19-3.5-54.95-12.32-89.54-8.07-31.67-18.92-58.03-29.02-78.5-.76-3.09-1.56-7.9-.97-13.75.46-4.57,1.69-9.07,3.68-13.29l8.71-18.45H31.41l8.71,18.45c3.98,8.44,4.94,17.99,2.71,27.04-10.1,20.38-20.95,46.64-29.02,78.22C4.92,224.79,2.03,255.66,1.49,279.87c-.74,2.99-6.4,27.88,10.68,49.67,10.51,13.4,26.84,22.24,45.68,22.24h349.61c37.67,0,65.36-35.33,56.36-71.9Z"/>
  <path class="cls-2" d="M424.49,0H40.81C25.9,0,13.8,12.09,13.8,27.01v41.33h172.77c7.85,20.26,27.68,33.22,48.78,32.14,19.35-.99,36.54-13.63,43.66-32.14h172.49V27.01c0-14.92-12.09-27.01-27.01-27.01Z"/>
  <path class="cls-1" d="M190.31,259.22c-3.41-.21-6.83-.45-10.24-.71.9-7.96,1.8-15.92,2.7-23.88-19.68-1.5-39.28-3.8-58.74-6.9-1.28,5.43-2.57,10.87-3.85,16.3,10.53,1.68,21.1,3.13,31.7,4.35-.42,2.44-.83,4.87-1.25,7.31-11.94-1.38-23.84-3.04-35.69-4.98-3.79-.62-7.58-1.27-11.36-1.95-3.36-.6-6.72-1.23-10.07-1.88,2.24-7.78,4.48-15.56,6.72-23.34-19.33-3.75-38.47-8.31-57.37-13.66-2.2,5.23-4.39,10.46-6.59,15.7,10.22,2.9,20.52,5.57,30.88,8.01-.83,2.36-1.65,4.73-2.48,7.09-11.66-2.75-23.25-5.79-34.75-9.11-3.68-1.06-7.35-2.15-11.01-3.28-3.25-1-6.5-2.01-9.74-3.06,3.55-7.44,7.09-14.89,10.64-22.33-2.82-.91-5.63-1.84-8.44-2.79-.28,1.24-.57,2.48-.84,3.71,1.04.35,2.07.71,3.11,1.05-1.88,3.86-3.77,7.72-5.65,11.58-.73,3.98-1.39,7.89-1.98,11.72,3.76,1.22,7.54,2.42,11.32,3.58,3.69,1.13,7.38,2.23,11.09,3.3,13.18,3.81,26.47,7.24,39.87,10.31,1.61-4.75,3.22-9.5,4.83-14.25-10.3-2.36-20.54-4.94-30.71-7.75,1.19-2.9,2.37-5.81,3.56-8.71,16.02,4.42,32.21,8.27,48.53,11.56-2.32,7.76-4.63,15.53-6.95,23.29,5,1.01,10.02,1.96,15.04,2.87,3.81.69,7.62,1.34,11.44,1.97,13.58,2.23,27.23,4.09,40.93,5.58.79-4.89,1.58-9.78,2.37-14.66-10.53-1.15-21.04-2.52-31.51-4.11.68-3.01,1.36-6.02,2.04-9.03,16.48,2.51,33.06,4.46,49.7,5.83-.98,7.95-1.95,15.91-2.93,23.86,5.1.42,10.2.79,15.31,1.11,3.87.24,7.74.46,11.62.64.69.03,1.38.05,2.07.08v-3.71c-.6-.03-1.21-.05-1.81-.08-3.85-.18-7.69-.39-11.53-.63Z"/>
  <path class="cls-1" d="M459.71,231.49c-.18-1.26-.36-2.51-.56-3.78-3.2.99-6.4,1.96-9.61,2.91-3.27.96-6.54,1.9-9.82,2.81-3.12-7.57-6.24-15.14-9.37-22.71-18.92,5.27-38.09,9.74-57.44,13.41,1.52,5.39,3.03,10.79,4.55,16.18,10.47-1.99,20.89-4.2,31.25-6.64.82,2.36,1.65,4.73,2.47,7.09-11.67,2.75-23.41,5.21-35.21,7.39-3.78.7-7.56,1.37-11.35,2.01-3.37.57-6.74,1.11-10.11,1.64-1.8-7.86-3.61-15.71-5.41-23.57-19.47,3.01-39.09,5.23-58.77,6.64.59,5.51,1.17,11.03,1.76,16.54,10.65-.76,21.29-1.76,31.89-2.97.41,2.44.83,4.87,1.24,7.31-11.94,1.37-23.92,2.46-35.92,3.26-3.84.26-7.69.49-11.53.69-.29.02-.58.02-.87.04v3.72c.38-.02.77-.03,1.15-.05,3.87-.2,7.74-.43,11.61-.69,13.76-.92,27.48-2.21,41.16-3.88-.88-4.88-1.76-9.76-2.64-14.63-10.52,1.28-21.06,2.33-31.63,3.16-.35-3.05-.71-6.1-1.06-9.15,16.64-1.3,33.23-3.18,49.72-5.62,1.73,7.87,3.45,15.73,5.18,23.6,5.06-.75,10.1-1.55,15.14-2.4,3.82-.64,7.63-1.32,11.43-2.02,13.53-2.5,26.98-5.37,40.32-8.6-1.7-4.73-3.4-9.46-5.1-14.19-10.26,2.49-20.59,4.75-30.97,6.79-.87-2.98-1.74-5.96-2.6-8.94,16.34-3.21,32.55-6.99,48.59-11.34,3.05,7.59,6.1,15.18,9.14,22.77,4.92-1.33,9.82-2.72,14.7-4.15,2.89-.85,5.78-1.73,8.66-2.62Z"/>
  <path class="cls-2" d="M231.45,242.14c-62.23-72.09-138.66,0-138.66,0,3.14,11.96,14.25,48.76,46.7,75.19,40.17,32.73,83.25,25.27,91.97,23.55,8.72,1.73,51.8,9.18,91.97-23.55,32.44-26.43,43.55-63.23,46.7-75.19,0,0-76.43-72.09-138.66,0Z"/>
  <path class="cls-1" d="M49.65,34.17c0,.96-.25,14.88-12.38,22.68-.81-.52-12.38-8.26-12.38-22.68s11.57-22.16,12.38-22.68c.81.52,12.38,8.26,12.38,22.68Z"/>
  <path class="cls-1" d="M81.38,34.17c0,.96-.25,14.88-12.38,22.68-.81-.52-12.38-8.26-12.38-22.68s11.57-22.16,12.38-22.68c.81.52,12.38,8.26,12.38,22.68Z"/>
  <path class="cls-1" d="M115.55,34.17c0,.96-.25,14.88-12.38,22.68-.81-.52-12.38-8.26-12.38-22.68s11.57-22.16,12.38-22.68c.81.52,12.38,8.26,12.38,22.68Z"/>
  <path class="cls-1" d="M190.81,34.17c0,.96.41,12.79-4.24,22.68-.81-.52-4.24-8.26-4.24-22.68s3.44-22.16,4.24-22.68c.81.52,4.24,8.26,4.24,22.68Z"/>
  <path class="cls-1" d="M283.25,34.17c0,.96.41,12.79-4.24,22.68-.81-.52-4.24-8.26-4.24-22.68s3.44-22.16,4.24-22.68c.81.52,4.24,8.26,4.24,22.68Z"/>
  <path class="cls-1" d="M145.48,10.1c.96,0,16.59.36,22.68,6.13-.52.81-8.26,6.13-22.68,6.13s-22.16-5.32-22.68-6.13c.52-.81,8.26-6.13,22.68-6.13Z"/>
  <path class="cls-1" d="M145.48,28.04c.96,0,16.59.36,22.68,6.13-.52.81-8.26,6.13-22.68,6.13s-22.16-5.32-22.68-6.13c.52-.81,8.26-6.13,22.68-6.13Z"/>
  <path class="cls-1" d="M145.48,45.98c.96,0,16.59.36,22.68,6.13-.52.81-8.26,6.13-22.68,6.13s-22.16-5.32-22.68-6.13c.52-.81,8.26-6.13,22.68-6.13Z"/>
  <path class="cls-1" d="M319.58,10.1c.96,0,16.59.36,22.68,6.13-.52.81-8.26,6.13-22.68,6.13s-22.16-5.32-22.68-6.13c.52-.81,8.26-6.13,22.68-6.13Z"/>
  <path class="cls-1" d="M319.58,28.04c.96,0,16.59.36,22.68,6.13-.52.81-8.26,6.13-22.68,6.13s-22.16-5.32-22.68-6.13c.52-.81,8.26-6.13,22.68-6.13Z"/>
  <path class="cls-1" d="M319.58,45.98c.96,0,16.59.36,22.68,6.13-.52.81-8.26,6.13-22.68,6.13s-22.16-5.32-22.68-6.13c.52-.81,8.26-6.13,22.68-6.13Z"/>
  <path class="cls-1" d="M376.02,34.17c0,.96-.25,14.88-12.38,22.68-.81-.52-12.38-8.26-12.38-22.68s11.57-22.16,12.38-22.68c.81.52,12.38,8.26,12.38,22.68Z"/>
  <path class="cls-1" d="M407.75,34.17c0,.96-.25,14.88-12.38,22.68-.81-.52-12.38-8.26-12.38-22.68s11.57-22.16,12.38-22.68c.81.52,12.38,8.26,12.38,22.68Z"/>
  <path class="cls-1" d="M441.92,34.17c0,.96-.25,14.88-12.38,22.68-.81-.52-12.38-8.26-12.38-22.68s11.57-22.16,12.38-22.68c.81.52,12.38,8.26,12.38,22.68Z"/>
  <circle class="cls-1" cx="232.37" cy="46.12" r="11.81"/>
  <polygon class="cls-1" points="221.19 34.04 216.65 17.1 204.25 29.5 221.19 34.04"/>
  <polygon class="cls-1" points="221.19 57.93 204.25 62.47 216.65 74.87 221.19 57.93"/>
  <polygon class="cls-1" points="244.18 57.93 248.72 74.87 261.12 62.47 244.18 57.93"/>
  <polygon class="cls-1" points="244.18 34.04 261.12 29.5 248.72 17.1 244.18 34.04"/>
  <path d="M250.27,233.03c-4.65,2.69-9.27,5.99-13.82,9.97v15.49c14.13-.1,27.95-.6,41.18-1.5-5.95-10.9-15.65-19.46-27.35-23.96Z"/>
  <path d="M281.72,266.73c-14.49,1.06-29.7,1.66-45.27,1.77v56.78c5.47.65,14.08,1.24,24.46.3,13.93-9.46,23.1-25.42,23.1-43.49,0-5.34-.81-10.49-2.29-15.35Z"/>
  <path d="M185.28,256.99c13.23.89,27.04,1.4,41.18,1.5v-15.49c-4.55-3.98-9.18-7.28-13.82-9.97-11.7,4.5-21.41,13.06-27.35,23.96Z"/>
  <path d="M117.65,247.81c5.61,1.28,11.56,2.45,17.81,3.51,2.81-8.75,6.79-16.97,11.75-24.5-18.33,5.43-32.56,14.78-38.2,18.86,2.69.72,5.56,1.43,8.64,2.13Z"/>
  <path d="M226.45,325.27v-56.78c-15.57-.11-30.77-.71-45.27-1.77-1.49,4.86-2.29,10.01-2.29,15.35,0,18.07,9.17,34.03,23.1,43.49,10.38.94,18.99.36,24.46-.3Z"/>
  <path d="M200.91,227.5c-13.36-4.98-26.63-5.62-38.82-3.94-7.24,8.57-12.93,18.48-16.62,29.31,9.19,1.32,18.92,2.42,29.06,3.29,5.54-12.12,14.83-22.17,26.38-28.67Z"/>
  <path d="M317.43,252.88c-3.69-10.83-9.38-20.75-16.62-29.31-12.19-1.69-25.46-1.05-38.82,3.94,11.55,6.49,20.84,16.55,26.38,28.67,10.14-.87,19.87-1.97,29.06-3.29Z"/>
  <path d="M353.59,256.09c-1.98.5-4.01.99-6.12,1.47-5.51,1.25-11.34,2.4-17.45,3.45,1.45,6.8,2.22,13.84,2.22,21.07,0,2.97-.14,5.9-.39,8.8,11.58-12.62,18.15-25.76,21.73-34.79Z"/>
  <path d="M320.14,262.58c-8.96,1.32-18.41,2.42-28.26,3.31,1.38,5.16,2.13,10.59,2.13,16.18,0,15.36-5.57,29.43-14.79,40.33,11.23-2.89,23.35-7.86,35.19-16.19,1.97-1.38,3.84-2.8,5.64-4.25,1.44-6.4,2.2-13.06,2.2-19.89s-.73-13.21-2.11-19.49Z"/>
  <path d="M130.66,282.08c0-7.22.77-14.27,2.22-21.07-6.1-1.05-11.94-2.2-17.45-3.45-2.1-.48-4.14-.97-6.12-1.47,3.58,9.04,10.15,22.17,21.73,34.79-.25-2.9-.39-5.84-.39-8.8Z"/>
  <path d="M183.68,322.41c-9.22-10.9-14.79-24.97-14.79-40.33,0-5.6.75-11.02,2.13-16.18-9.84-.89-19.3-2-28.26-3.31-1.38,6.28-2.11,12.8-2.11,19.49s.76,13.48,2.2,19.89c1.8,1.45,3.67,2.87,5.64,4.25,11.84,8.33,23.96,13.3,35.19,16.19Z"/>
  <path d="M345.25,247.81c3.08-.7,5.95-1.41,8.64-2.13-5.64-4.08-19.86-13.43-38.2-18.86,4.95,7.53,8.94,15.75,11.75,24.5,6.25-1.06,12.2-2.23,17.81-3.51Z"/>
  <path class="cls-2" d="M49.65,251.31H3.16c-.97,10.29-1.48,19.86-1.67,28.56-.74,2.99-6.4,27.88,10.68,49.67,10.51,13.4,26.84,22.24,45.68,22.24h14c-6.59-7.44-12.99-16.75-17.92-28.21-14.58-33.89-6.68-64.12-4.27-72.25Z"/>
  <path class="cls-1" d="M49.35,251.31h-27.08c-.97,10.29-1.48,19.86-1.67,28.56-.74,2.99-6.4,27.88,10.68,49.67,10.51,13.4,26.84,22.24,45.68,22.24h14c-6.59-7.44-12.99-16.75-17.92-28.21-9.07-21.09-9.44-40.77-7.84-54.58,1.09-9.43-6.36-17.67-15.85-17.67Z"/>
  <path class="cls-2" d="M415.87,252.86c15.5,0,31,0,46.5,0,.97,10.29,1.48,19.86,1.67,28.56.74,2.99,6.4,27.88-10.68,49.67-10.51,13.4-26.84,22.24-45.68,22.24h-14c6.59-7.44,12.99-16.75,17.92-28.21,14.58-33.89,6.68-64.12,4.27-72.25Z"/>
  <path class="cls-1" d="M418.46,252.86h24.79c.97,10.29,1.48,19.86,1.67,28.56.74,2.99,6.4,27.88-10.68,49.67-10.51,13.4-26.84,22.24-45.68,22.24h-14c6.59-7.44,12.99-16.75,17.92-28.21,8.64-20.09,9.39-38.9,8.06-52.58-1.03-10.56,7.31-19.68,17.92-19.68Z"/>
  <g>
    <path class="cls-1" d="M204.43,199.27c-.5-.03-.99-.05-1.49-.08-3.16-.18-6.32-.39-9.48-.63-2.81-.21-5.61-.45-8.41-.71.74-7.96,1.48-15.92,2.22-23.88-16.17-1.5-32.29-3.8-48.28-6.9-1.05,5.43-2.11,10.87-3.16,16.3,8.65,1.68,17.34,3.13,26.06,4.35-.34,2.44-.69,4.87-1.03,7.31-9.81-1.38-19.6-3.04-29.34-4.98-3.12-.62-6.23-1.27-9.34-1.95-2.76-.6-5.52-1.23-8.27-1.88,1.84-7.78,3.68-15.56,5.52-23.34-15.88-3.75-31.62-8.31-47.15-13.66-1.8,5.23-3.61,10.46-5.41,15.7,8.4,2.9,16.87,5.57,25.38,8.01-.68,2.36-1.36,4.73-2.04,7.09-9.59-2.75-19.11-5.79-28.56-9.11-3.02-1.06-6.04-2.15-9.05-3.28-2.67-1-5.34-2.01-8-3.06,2.91-7.44,5.83-14.89,8.74-22.33-6.89-2.7-13.73-5.56-20.51-8.58-.48,1.13-.95,2.26-1.43,3.41,5.59,2.49,11.21,4.88,16.87,7.15-2.97,7.42-5.95,14.84-8.92,22.26,3.97,1.59,7.95,3.13,11.95,4.62,3.03,1.13,6.07,2.23,9.12,3.3,10.83,3.81,21.76,7.24,32.77,10.31,1.32-4.75,2.65-9.5,3.97-14.25-8.47-2.36-16.88-4.94-25.24-7.75.98-2.9,1.95-5.81,2.93-8.71,13.16,4.42,26.47,8.27,39.89,11.56-1.9,7.76-3.81,15.53-5.71,23.29,4.11,1.01,8.23,1.96,12.37,2.87,3.13.69,6.27,1.34,9.4,1.97,11.16,2.23,22.38,4.09,33.64,5.58.65-4.89,1.3-9.78,1.94-14.66-8.66-1.15-17.29-2.52-25.89-4.11.56-3.01,1.12-6.02,1.68-9.03,13.55,2.51,27.17,4.46,40.85,5.83-.8,7.95-1.6,15.91-2.41,23.86,4.19.42,8.39.79,12.58,1.11,3.18.24,6.36.46,9.55.64.57.03,1.13.05,1.7.08v-3.71Z"/>
    <path class="cls-1" d="M441.13,156.14c-8.45,3.73-16.97,7.24-25.57,10.49-3,1.14-6.02,2.25-9.04,3.33-2.68.96-5.37,1.9-8.07,2.81l-7.7-22.71c-15.55,5.27-31.31,9.74-47.21,13.41,1.25,5.39,2.49,10.79,3.74,16.18,8.6-1.99,17.17-4.2,25.68-6.64.68,2.36,1.36,4.73,2.03,7.09-9.59,2.75-19.24,5.21-28.94,7.39-3.1.7-6.21,1.37-9.33,2.01-2.77.57-5.54,1.11-8.31,1.64-1.48-7.86-2.96-15.71-4.44-23.57-16.01,3.01-32.13,5.23-48.31,6.64.48,5.51.97,11.03,1.45,16.54,8.76-.76,17.49-1.76,26.21-2.97.34,2.44.68,4.87,1.02,7.31-9.81,1.37-19.66,2.46-29.52,3.26-3.16.26-6.32.49-9.48.69-.24.02-.48.02-.71.04v3.72c.32-.02.63-.03.95-.05,3.18-.2,6.37-.43,9.55-.69,11.31-.92,22.59-2.21,33.83-3.88-.72-4.88-1.45-9.76-2.17-14.63-8.64,1.28-17.31,2.33-26,3.16-.29-3.05-.58-6.1-.87-9.15,13.68-1.3,27.31-3.18,40.87-5.62,1.42,7.87,2.84,15.73,4.26,23.6,4.15-.75,8.3-1.55,12.44-2.4,3.14-.64,6.27-1.32,9.4-2.02,11.12-2.5,22.17-5.37,33.14-8.6-1.4-4.73-2.79-9.46-4.19-14.19-8.44,2.49-16.92,4.75-25.45,6.79-.71-2.98-1.43-5.96-2.14-8.94,13.43-3.21,26.76-6.99,39.94-11.34,2.51,7.59,5.01,15.18,7.52,22.77,4.04-1.33,8.07-2.72,12.08-4.15,3.04-1.09,6.08-2.2,9.1-3.35,8.56-3.24,17.05-6.73,25.47-10.44-.4-1.18-.81-2.36-1.22-3.52Z"/>
  </g>
  <path class="cls-2" d="M232.76,163.99l-36.3-36.3,36.3-36.3,36.3,36.3-36.3,36.3ZM204.95,127.69l27.81,27.81,27.81-27.81-27.81-27.81-27.81,27.81Z"/>
  <path class="cls-2" d="M232.76,189.34l-36.3-36.3,36.3-36.3,36.3,36.3-36.3,36.3ZM204.95,153.04l27.81,27.81,27.81-27.81-27.81-27.81-27.81,27.81Z"/>
  <rect class="cls-2" x="213.54" y="174.54" width="38.45" height="38.45" transform="translate(205.19 -107.83) rotate(45)"/>
  <path class="cls-1" d="M59.28,124.59s52.2-76.34,108.34-40.54c56.14,35.8,49.22,71.59,49.22,71.59,0,0-8.95-16.27-34.98,0s-84.61,14.24-113.9-33.76l-8.68,2.71Z"/>
  <g>
    <ellipse class="cls-2" cx="140.91" cy="123.37" rx="25.63" ry="51.53" transform="translate(-2.55 243.76) rotate(-81.21)"/>
    <path d="M152.48,152.42c-5.06,0-10.39-.4-15.87-1.25-13.98-2.16-26.73-6.93-35.92-13.42-9.69-6.85-14.37-14.89-13.17-22.64,1.2-7.75,8.09-14,19.4-17.6,10.72-3.41,24.32-4.1,38.29-1.94,29.94,4.63,51.5,20.47,49.09,36.05-1.97,12.73-19.24,20.79-41.82,20.79ZM129.45,99.33c-7.7,0-14.89.99-21.02,2.94-9.41,2.99-15.08,7.82-15.97,13.6s3.05,12.1,11.12,17.79c8.57,6.05,20.57,10.51,33.8,12.56,26.26,4.06,50.07-2.97,51.98-15.36l2.47.38-2.47-.38c1.92-12.39-18.65-26.29-44.91-30.35-5.11-.79-10.15-1.18-14.99-1.18Z"/>
  </g>
  <path class="cls-1" d="M406.25,124.59s-52.2-76.34-108.34-40.54c-56.14,35.8-49.22,71.59-49.22,71.59,0,0,8.95-16.27,34.98,0,26.03,16.27,84.61,14.24,113.9-33.76l8.68,2.71Z"/>
  <g>
    <ellipse class="cls-2" cx="324.62" cy="123.37" rx="51.53" ry="25.63" transform="translate(-15.04 51.06) rotate(-8.79)"/>
    <path d="M313.05,152.42c-22.58,0-39.85-8.06-41.82-20.79-2.41-15.59,19.15-31.42,49.09-36.05,13.98-2.16,27.57-1.47,38.29,1.94,11.31,3.6,18.2,9.85,19.4,17.6,1.2,7.75-3.48,15.79-13.17,22.64-9.19,6.49-21.94,11.25-35.92,13.42-5.48.85-10.81,1.25-15.87,1.25ZM276.17,130.86c1.92,12.39,25.72,19.42,51.98,15.36,13.23-2.05,25.23-6.51,33.8-12.56,8.06-5.69,12.01-12.01,11.12-17.79-.89-5.78-6.57-10.61-15.97-13.6-10-3.18-22.79-3.81-36.01-1.76-26.26,4.06-46.83,17.96-44.92,30.35Z"/>
  </g>
</svg>