<?xml version="1.0" encoding="UTF-8"?>
<svg id="Capa_5" data-name="Capa 5" xmlns="http://www.w3.org/2000/svg" viewBox="0 0 521.46 895.65">
  <defs>
    <style>
      .cls-1 {
        fill: #ffe266;
      }

      .cls-2 {
        fill: none;
      }

      .cls-3 {
        fill: #fcc305;
      }
    </style>
  </defs>
  <path class="cls-3" d="M316.6,241.48c-.58-1.92-1.44-3.72-2.55-5.34-.76-1.83-1.78-3.52-3.04-5.02-.92-1.73-2.1-3.3-3.48-4.66-1.08-1.62-2.39-3.06-3.89-4.28-1.22-1.49-2.66-2.8-4.27-3.88-1.35-1.36-2.91-2.53-4.61-3.44-1.47-1.23-3.13-2.23-4.92-2.98-1.58-1.08-3.33-1.92-5.2-2.5-1.68-.92-3.51-1.6-5.44-1.99-1.77-.75-3.67-1.25-5.66-1.45-1.83-.58-3.78-.89-5.8-.89-.01,0-.03,0-.04,0-1.27-.26-2.59-.4-3.93-.4-.68,0-1.36.04-2.03.11-.65-.07-1.32-.1-1.99-.1-1.36,0-2.68.14-3.95.41-2.02,0-3.97.31-5.81.89-1.98.2-3.87.7-5.63,1.45-1.93.39-3.75,1.06-5.42,1.98-1.86.57-3.61,1.41-5.18,2.49-1.79.75-3.44,1.75-4.91,2.97-1.71.91-3.26,2.07-4.61,3.43-1.61,1.07-3.05,2.37-4.28,3.87-1.51,1.22-2.82,2.66-3.91,4.28-1.39,1.36-2.57,2.93-3.5,4.66-1.26,1.5-2.29,3.19-3.05,5.02-1.12,1.62-1.99,3.42-2.57,5.35-1.54,2.77-2.42,5.95-2.42,9.35,0,10.67,8.65,19.32,19.32,19.32,8.73,0,16.1-5.79,18.5-13.74.35-.63.67-1.28.95-1.96.4-.59.77-1.19,1.11-1.82.45-.54.88-1.1,1.27-1.68.5-.49.97-1,1.41-1.54.54-.44,1.05-.9,1.54-1.39.57-.38,1.13-.79,1.66-1.23.61-.32,1.19-.68,1.76-1.06.63-.26,1.25-.56,1.85-.88.65-.2,1.29-.43,1.92-.7.67-.14,1.32-.3,1.97-.51.68-.07,1.34-.17,2-.31.68,0,1.36-.04,2.02-.11.65.07,1.32.1,1.99.1.01,0,.03,0,.04,0,.66.14,1.33.24,2.01.31.64.2,1.3.37,1.97.51.62.27,1.26.5,1.92.7.6.33,1.21.62,1.84.89.56.38,1.15.74,1.76,1.06.53.44,1.08.85,1.65,1.23.49.49,1,.95,1.53,1.39.44.54.91,1.05,1.4,1.54.39.58.81,1.15,1.26,1.68.34.63.7,1.24,1.1,1.82.28.67.59,1.32.94,1.95,2.39,7.96,9.76,13.76,18.5,13.76,10.67,0,19.32-8.65,19.32-19.32,0-3.38-.87-6.56-2.4-9.32Z"/>
  <g>
    <path class="cls-1" d="M211.94,238.88c-.74,1.23-1.33,2.56-1.72,3.97-1.37,2.34-2.17,5.05-2.17,7.95,0,8.71,7.06,15.76,15.76,15.76,4.82,0,9.13-2.18,12.01-5.59l-23.89-22.1Z"/>
    <path class="cls-1" d="M235.24,215.13c-1.62.66-3.11,1.57-4.4,2.7-1.63.82-3.09,1.91-4.34,3.22-1.54.97-2.9,2.2-4.02,3.63-1.45,1.12-2.69,2.48-3.67,4.02-1.34,1.25-2.45,2.73-3.29,4.39-.59.67-1.13,1.4-1.6,2.17l24.12,22.31c.39-.82.72-1.68.97-2.58.42-.72.79-1.48,1.1-2.27.48-.67.92-1.38,1.29-2.12.54-.61,1.03-1.27,1.47-1.96.59-.56,1.14-1.15,1.64-1.79.64-.49,1.24-1.03,1.8-1.62.68-.43,1.33-.91,1.94-1.44.72-.36,1.41-.78,2.06-1.24.21-.08.41-.18.61-.27l-15.67-27.15Z"/>
    <path class="cls-1" d="M289.63,215.73l-12.71,29.27c.1.07.2.15.31.21.55.59,1.15,1.13,1.79,1.62.5.64,1.05,1.24,1.64,1.8.44.69.93,1.35,1.47,1.96.37.74.8,1.45,1.28,2.12.3.79.67,1.54,1.09,2.27.17.62.39,1.23.63,1.82l28.16-13.93c-.5-1.82-1.32-3.51-2.4-5.01-.67-1.75-1.64-3.34-2.86-4.72-.83-1.65-1.94-3.13-3.28-4.39-.98-1.55-2.22-2.91-3.66-4.03-1.12-1.43-2.47-2.67-4.02-3.64-1.24-1.31-2.71-2.41-4.34-3.23-.95-.82-1.99-1.53-3.12-2.11Z"/>
    <path class="cls-1" d="M287.11,260.27c2.87,3.82,7.43,6.29,12.57,6.29,8.71,0,15.76-7.06,15.76-15.76,0-1.48-.21-2.9-.59-4.26l-27.74,13.73Z"/>
    <path class="cls-1" d="M271.09,241.49c.69.4,1.41.74,2.16,1.04.1.07.2.13.3.2l12.55-28.9c-.91-.46-1.86-.85-2.86-1.13-1.56-.9-3.28-1.54-5.11-1.87-1.64-.75-3.43-1.22-5.31-1.36-1.6-.54-3.3-.85-5.08-.85-.14,0-.27.02-.41.02-1.15-.27-2.34-.42-3.57-.42-.69,0-1.36.06-2.03.14-.65-.08-1.31-.14-1.99-.14-1.24,0-2.43.16-3.59.43-.12,0-.24-.02-.36-.02-1.78,0-3.49.31-5.09.86-1.87.15-3.65.62-5.28,1.36-1.83.33-3.54.96-5.09,1.86-.53.15-1.05.34-1.56.54l15.86,27.48s.05-.02.08-.03c.79-.14,1.56-.34,2.31-.6.8-.06,1.59-.19,2.35-.36.12,0,.24.02.36.02.69,0,1.36-.06,2.03-.14.65.08,1.31.14,1.99.14.14,0,.27-.02.41-.02.77.18,1.56.3,2.37.36.75.26,1.52.45,2.32.6.72.33,1.47.6,2.25.82Z"/>
  </g>
  <path class="cls-3" d="M214.86,123.17c0,3.81-3.09,6.9-6.9,6.9s-6.9-3.09-6.9-6.9h13.81Z"/>
  <path class="cls-3" d="M322.21,123.17c0,3.81-3.09,6.9-6.9,6.9s-6.9-3.09-6.9-6.9h13.81Z"/>
  <path class="cls-1" d="M315.31,132.94c-5.39,0-9.76-4.37-9.76-9.76h-87.83c0,5.39-4.37,9.76-9.76,9.76s-9.76-4.37-9.76-9.76h-24.25c-.42,1.55-.67,3.17-.67,4.85,0,3.96,1.27,7.62,3.41,10.61h170.14c2.14-2.99,3.41-6.65,3.41-10.61,0-1.68-.25-3.3-.67-4.85h-24.48c0,5.39-4.37,9.76-9.76,9.76Z"/>
  <path class="cls-3" d="M260.35,146.5h-11.19c0,3.48-2.82,6.31-6.31,6.31s-6.31-2.82-6.31-6.31h-28.1c-.32,1.84-.49,3.75-.49,5.69,0,16.4,11.84,29.69,26.44,29.69s26.44-13.29,26.44-29.69c0-1.95-.17-3.85-.49-5.69Z"/>
  <path class="cls-1" d="M213.91,148.85c0-.79.04-1.58.12-2.35h-5.58c-.32,1.84-.49,3.75-.49,5.69,0,16.4,11.84,29.69,26.44,29.69,6.99,0,13.33-3.05,18.06-8.02-2.89.86-5.98,1.33-9.19,1.33-16.21,0-29.35-11.8-29.35-26.35Z"/>
  <path class="cls-1" d="M254.1,157.21c-7.15,0-12.95,2.28-12.95,5.08s5.8,5.08,12.95,5.08c1.07,0,2.1-.06,3.09-.15,1.5-2.86,2.58-6.02,3.16-9.39-1.85-.4-3.98-.63-6.25-.63Z"/>
  <path class="cls-3" d="M262.92,146.5h11.19c0,3.48,2.82,6.31,6.31,6.31s6.31-2.82,6.31-6.31h28.1c.32,1.84.49,3.75.49,5.69,0,16.4-11.84,29.69-26.44,29.69-14.6,0-26.44-13.29-26.44-29.69,0-1.95.17-3.85.49-5.69Z"/>
  <path class="cls-1" d="M309.35,148.85c0-.79-.04-1.58-.12-2.35h5.58c.32,1.84.49,3.75.49,5.69,0,16.4-11.84,29.69-26.44,29.69-6.99,0-13.33-3.05-18.06-8.02,2.89.86,5.98,1.33,9.19,1.33,16.21,0,29.35-11.8,29.35-26.35Z"/>
  <path class="cls-1" d="M269.16,157.21c7.15,0,12.95,2.28,12.95,5.08s-5.8,5.08-12.95,5.08c-1.07,0-2.1-.06-3.09-.15-1.5-2.86-2.58-6.02-3.16-9.39,1.85-.4,3.98-.63,6.25-.63Z"/>
  <rect class="cls-1" x="254.04" y="146.5" width="15.18" height="38.03"/>
  <path class="cls-3" d="M273.7,181.67h-4.95c0-3.93-3.18-7.11-7.11-7.11s-7.11,3.18-7.11,7.11h-4.95c-2.94,0-4.54,3.42-2.67,5.68l12.06,14.56c1.39,1.67,3.96,1.67,5.34,0l12.06-14.56c1.87-2.26.26-5.68-2.67-5.68Z"/>
  <rect class="cls-3" x="250.75" y="148.46" width="20.57" height="5.49"/>
  <path class="cls-3" d="M215.99,208.97c0-18.15-13.06-33.23-30.3-36.4-4.31,11.36-6.72,23.86-6.72,37.01s2.25,24.81,6.29,35.86c17.44-2.99,30.72-18.18,30.72-36.47Z"/>
  <path class="cls-1" d="M205.9,202.54c-.26,0-.52.02-.77.05-.56-2.32-1.43-4.53-2.55-6.57,1.98-1.1,3.32-3.21,3.32-5.63,0-3.55-2.88-6.44-6.44-6.44-2.2,0-4.14,1.1-5.3,2.79-3.39-2.32-7.35-3.88-11.62-4.45-2.32,8.64-3.58,17.8-3.58,27.29s1.14,17.82,3.25,26.11c4.39-.53,8.46-2.1,11.94-4.48,1.16,1.68,3.1,2.79,5.3,2.79,3.55,0,6.44-2.88,6.44-6.44,0-2.42-1.34-4.53-3.32-5.63,1.12-2.04,1.99-4.25,2.55-6.57.25.03.51.05.77.05,3.55,0,6.44-2.88,6.44-6.44s-2.88-6.44-6.44-6.44ZM197.48,201.11h-12.76v18.37h8.43l-.25-12h-2l.05,8.29-4,.03-.08-12.32h9.94l.42,20h-16.52v-26.37h16.76v4Z"/>
  <path class="cls-3" d="M307.59,208.97c0-18.15,13.06-33.23,30.3-36.4,4.31,11.36,6.72,23.86,6.72,37.01,0,12.71-2.25,24.81-6.29,35.86-17.44-2.99-30.72-18.18-30.72-36.47Z"/>
  <path class="cls-1" d="M311.24,208.97c0,3.55,2.88,6.44,6.44,6.44.26,0,.52-.02.77-.05.56,2.32,1.43,4.53,2.55,6.57-1.98,1.1-3.32,3.21-3.32,5.63,0,3.55,2.88,6.44,6.44,6.44,2.2,0,4.14-1.1,5.3-2.79,3.48,2.38,7.55,3.95,11.94,4.48,2.12-8.29,3.25-17.05,3.25-26.11,0-9.5-1.26-18.65-3.58-27.29-4.27.57-8.22,2.12-11.62,4.45-1.16-1.68-3.1-2.79-5.3-2.79-3.55,0-6.44,2.88-6.44,6.44,0,2.42,1.34,4.53,3.32,5.63-1.12,2.04-1.99,4.25-2.55,6.57-.25-.03-.51-.05-.77-.05-3.55,0-6.44,2.88-6.44,6.44ZM326.1,197.11h16.76v26.37h-16.52s.42-20,.42-20h9.94s-.08,12.32-.08,12.32l-4-.03.05-8.29h-2s-.25,12-.25,12h8.43s0-18.37,0-18.37h-12.76v-4Z"/>
  <path class="cls-1" d="M264.68,123.17c-5.58-.2-31.02-1.7-51.9-22.58-20.88-20.88-22.38-46.32-22.58-51.9,5.58.2,31.02,1.7,51.9,22.58,20.88,20.88,22.38,46.32,22.58,51.9Z"/>
  <path class="cls-1" d="M254.04,123.17c5.58-.2,31.02-1.7,51.9-22.58,20.88-20.88,22.38-46.32,22.58-51.9-5.58.2-31.02,1.7-51.9,22.58s-22.38,46.32-22.58,51.9Z"/>
  <path class="cls-3" d="M260.35,142.49c-5.15-5.53-28.05-31.3-28.05-71.24S255.2,5.53,260.35,0c5.15,5.53,28.05,31.3,28.05,71.24s-22.9,65.72-28.05,71.24Z"/>
  <rect class="cls-1" x="254.04" y="16.73" width="12.16" height="106.09"/>
  <g>
    <path class="cls-2" d="M276.94,93.34l4.24,4.24-4.24,4.24,5.09,5.09c1.94-5.26,3.58-11.03,4.72-17.28l-3.05-3.05-6.75,6.75Z"/>
    <path class="cls-2" d="M268.45,97.58l13.12-13.12-13.12-13.12,13.22-13.22-13.22-13.22,12.39-12.39c-7.16-17.73-17.28-29.06-20.49-32.51-3.25,3.48-13.54,15.01-20.71,33.06l11.85,11.85-13.22,13.22,13.22,13.22-13.12,13.12,13.12,13.12-11.85,11.85c7.17,18.04,17.46,29.57,20.71,33.06,3.21-3.45,13.33-14.78,20.49-32.51l-12.39-12.39Z"/>
    <path class="cls-2" d="M287.78,59.99c-.12-1.12-.26-2.22-.42-3.31l-1.45,1.45,1.87,1.87Z"/>
    <path class="cls-2" d="M276.94,67.1l4.24,4.24-4.24,4.24,6.75,6.75,4.49-4.49c.14-2.16.22-4.36.22-6.61s-.08-4.45-.22-6.61l-4.39-4.39-6.86,6.86Z"/>
    <path class="cls-2" d="M287.34,85.99c.17-1.15.31-2.31.44-3.49l-1.97,1.97,1.52,1.52Z"/>
    <path class="cls-2" d="M233.25,57.34c-.08.59-.15,1.19-.22,1.78l1-1-.78-.78Z"/>
    <path class="cls-2" d="M238.77,97.58l4.24-4.24-6.75-6.75-2.41,2.41c1.1,6.28,2.72,12.07,4.64,17.36l4.53-4.53-4.24-4.24Z"/>
    <path class="cls-2" d="M243.01,75.59l-4.24-4.24,4.24-4.24-6.86-6.86-3.58,3.58c-.17,2.41-.27,4.89-.27,7.42s.09,5,.27,7.42l3.68,3.68,6.75-6.75Z"/>
    <path class="cls-2" d="M233.03,83.36c.08.66.15,1.32.24,1.97l.86-.86-1.1-1.1Z"/>
    <path class="cls-2" d="M243.01,49.15l-4.24-4.24,4.24-4.24-4.53-4.53c-1.93,5.34-3.57,11.19-4.67,17.53l2.34,2.34,6.86-6.86Z"/>
    <path class="cls-2" d="M281.18,44.9l-4.24,4.24,6.86,6.86,2.98-2.98c-1.14-6.32-2.79-12.15-4.75-17.45l-5.09,5.09,4.24,4.24Z"/>
    <path class="cls-1" d="M238.38,84.46l13.12-13.12-13.22-13.22,13.22-13.22-11.85-11.85c-.4,1-.79,2.03-1.16,3.08l4.53,4.53-4.24,4.24,4.24,4.24-6.86,6.86-2.34-2.34c-.21,1.21-.4,2.44-.56,3.68l.78.78-1,1c-.18,1.54-.34,3.11-.46,4.7l3.58-3.58,6.86,6.86-4.24,4.24,4.24,4.24-6.75,6.75-3.68-3.68c.11,1.6.28,3.16.46,4.7l1.1,1.1-.86.86c.17,1.24.36,2.46.57,3.67l2.41-2.41,6.75,6.75-4.24,4.24,4.24,4.24-4.53,4.53c.38,1.04.77,2.07,1.16,3.08l11.85-11.85-13.12-13.12Z"/>
    <path class="cls-1" d="M281.67,58.12l-13.22,13.22,13.12,13.12-13.12,13.12,12.39,12.39c.4-1,.8-2.02,1.18-3.06l-5.09-5.09,4.24-4.24-4.24-4.24,6.75-6.75,3.05,3.05c.22-1.2.42-2.41.6-3.64l-1.52-1.52,1.97-1.97c.17-1.52.3-3.07.4-4.64l-4.49,4.49-6.75-6.75,4.24-4.24-4.24-4.24,6.86-6.86,4.39,4.39c-.1-1.57-.23-3.12-.4-4.64l-1.87-1.87,1.45-1.45c-.18-1.24-.38-2.45-.59-3.65l-2.98,2.98-6.86-6.86,4.24-4.24-4.24-4.24,5.09-5.09c-.38-1.04-.78-2.06-1.18-3.06l-12.39,12.39,13.22,13.22Z"/>
  </g>
  <polygon class="cls-3" points="226.32 83.9 214.52 85.74 222.01 95.04 226.32 83.9"/>
  <polygon points="223.69 106.68 235.49 104.84 228 95.54 223.69 106.68"/>
  <path d="M222.56,98.58l-11.39-14.14,17.94-2.79-6.55,16.93ZM212.7,85.04l9.61,11.93,5.53-14.28-15.13,2.36Z"/>
  <polygon class="cls-3" points="214.15 66.35 202.35 68.18 209.84 77.49 214.15 66.35"/>
  <polygon points="194.44 62.91 206.25 61.07 198.75 51.77 194.44 62.91"/>
  <polygon points="217.1 77.26 228.9 75.42 221.41 66.12 217.1 77.26"/>
  <path d="M210.39,81.03l-11.39-14.14,17.94-2.79-6.55,16.93ZM200.53,67.48l9.61,11.93,5.53-14.28-15.13,2.36Z"/>
  <polygon class="cls-3" points="293.31 83.9 305.11 85.74 297.62 95.04 293.31 83.9"/>
  <polygon points="295.94 106.68 284.14 104.84 291.63 95.54 295.94 106.68"/>
  <path d="M290.52,81.65l17.94,2.79-11.39,14.14-6.55-16.93ZM291.79,82.68l5.53,14.28,9.61-11.93-15.13-2.36Z"/>
  <polygon class="cls-3" points="305.48 66.35 317.28 68.18 309.79 77.49 305.48 66.35"/>
  <polygon points="325.18 62.91 313.38 61.07 320.87 51.77 325.18 62.91"/>
  <polygon points="302.53 77.26 290.73 75.42 298.22 66.12 302.53 77.26"/>
  <path d="M302.69,64.1l17.94,2.79-11.39,14.14-6.55-16.93ZM303.96,65.13l5.53,14.28,9.61-11.93-15.13-2.36Z"/>
</svg>