<?xml version="1.0" encoding="UTF-8"?>
<svg id="Capa_2" data-name="Capa 2" xmlns="http://www.w3.org/2000/svg" viewBox="0 0 521.46 895.65">
  <path d="M398.8,793.02c0-8.17-21.55-14.8-48.13-14.8-.37,0-.74,0-1.11,0,18.14-18.48,28.2-37.77,22.53-43.45-5.06-5.06-20.97,2.4-37.47,16.96-3.25-6.81-7.2-13.13-11.77-18.8h9.07c10.11,0,18.31-8.2,18.31-18.31,0-6.24-3.13-11.75-7.9-15.05,4.77-3.3,7.9-8.81,7.9-15.05,0-10.11-8.2-18.31-18.31-18.31h-8.74c6.5-8.15,11.74-17.59,15.41-27.95h26.88l-22.02-19.9c.69-4.89,1.08-9.89,1.08-15,0-24.38-8.21-46.58-21.68-63.25h9.07c10.11,0,18.31-8.2,18.31-18.31,0-7.21-4.17-13.42-10.23-16.41,6.05-2.99,10.23-9.2,10.23-16.41,0-10.11-8.2-18.31-18.31-18.31h-8.74c13.27-16.63,21.35-38.67,21.35-62.85s-8.21-46.58-21.68-63.25h9.07c10.11,0,18.31-8.2,18.31-18.31,0-8.63-5.98-15.85-14.02-17.78,8.04-1.93,14.02-9.15,14.02-17.78,0-10.11-8.2-18.31-18.31-18.31h-8.74c13.27-16.63,21.35-38.67,21.35-62.85,0-13.21-2.43-25.77-6.78-37.17h24.21c1.21,2.64,3.19,4.84,5.66,6.32v49.55c-4.17,2.5-6.96,7.04-6.96,12.25,0,7.89,6.4,14.28,14.28,14.28s14.28-6.4,14.28-14.28c0-5.21-2.8-9.75-6.96-12.25v-49.55c4.17-2.5,6.96-7.04,6.96-12.25,0-7.89-6.4-14.28-14.28-14.28-4.61,0-8.69,2.19-11.3,5.57h-32.92c-2.37-4.04-4.99-7.88-7.87-11.44h9.07c10.11,0,18.31-8.2,18.31-18.31s-8.2-18.31-18.31-18.31h-140.34c-10.11,0-18.31,8.2-18.31,18.31s8.2,18.31,18.31,18.31h9.07c-2.65,3.28-5.09,6.79-7.31,10.47h-33.75c-2.61-3.38-6.7-5.57-11.3-5.57-7.89,0-14.28,6.4-14.28,14.28,0,5.21,2.8,9.75,6.96,12.25v49.55c-4.17,2.5-6.96,7.04-6.96,12.25,0,7.89,6.4,14.28,14.28,14.28s14.28-6.4,14.28-14.28c0-5.21-2.8-9.75-6.96-12.25v-49.55c2.47-1.48,4.45-3.68,5.66-6.32h24.85c-4.59,11.65-7.14,24.55-7.14,38.14,0,24.18,8.08,46.22,21.35,62.85h-8.74c-10.11,0-18.31,8.2-18.31,18.31,0,8.63,5.98,15.85,14.02,17.78-8.04,1.93-14.02,9.15-14.02,17.78,0,10.11,8.2,18.31,18.31,18.31h9.07c-13.46,16.68-21.68,38.88-21.68,63.25s8.08,46.22,21.35,62.85h-8.74c-10.11,0-18.31,8.2-18.31,18.31,0,7.21,4.17,13.42,10.23,16.41-6.05,2.99-10.23,9.2-10.23,16.41,0,10.11,8.2,18.31,18.31,18.31h9.07c-13.46,16.68-21.68,38.88-21.68,63.25,0,5.41.43,10.71,1.2,15.88l-21.05,19.02h25.78c3.67,10.36,8.91,19.81,15.41,27.95h-8.74c-10.11,0-18.31,8.2-18.31,18.31,0,6.24,3.13,11.75,7.9,15.05-4.77,3.3-7.9,8.81-7.9,15.05,0,10.11,8.2,18.31,18.31,18.31h9.07c-4.3,5.33-8.06,11.23-11.2,17.58-15.99-13.75-31.15-20.66-36.07-15.74-5.67,5.67,4.39,24.97,22.53,43.45-.37,0-.74,0-1.11,0-26.58,0-48.13,6.63-48.13,14.8s20.86,14.58,46.85,14.79c-16.1,17.41-24.66,34.76-19.33,40.09,4.53,4.53,17.75-.98,32.31-12.62,3.54,8.72,8.21,16.73,13.82,23.76h-8.74c-10.11,0-18.31,8.2-18.31,18.31s8.2,18.31,18.31,18.31h140.34c10.11,0,18.31-8.2,18.31-18.31s-8.2-18.31-18.31-18.31h-8.74c5.87-7.36,10.72-15.78,14.31-24.97,15.14,12.47,29.11,18.51,33.8,13.83,5.33-5.33-3.23-22.68-19.33-40.09,25.99-.21,46.85-6.75,46.85-14.79Z"/>
  <path d="M3.63,270.41c-22.92,134.47,65.06,213.97,196.53,177.56,4.14-24.28,8.28-48.55,12.42-72.83-92.14,25.52-153.82-30.2-137.75-124.46-23.73,6.57-47.46,13.14-71.2,19.72Z"/>
  <path d="M517.83,270.41c22.92,134.47-65.06,213.97-196.53,177.56-4.14-24.28-8.28-48.55-12.42-72.83,92.14,25.52,153.82-30.2,137.75-124.46,23.73,6.57,47.46,13.14,71.2,19.72Z"/>
</svg>