<?xml version="1.0" encoding="UTF-8"?>
<svg id="Capa_4" data-name="Capa 4" xmlns="http://www.w3.org/2000/svg" viewBox="0 0 521.46 895.65">
  <defs>
    <style>
      .cls-1 {
        fill: #ffe266;
      }

      .cls-2 {
        fill: #fcc305;
      }
    </style>
  </defs>
  <g>
    <path class="cls-1" d="M12.58,334.28c-3.43-.65-6.83-1.43-10.19-2.34.54,5.11,1.28,10.09,2.21,14.94,2.59-4.26,5.26-8.46,7.98-12.6Z"/>
    <path class="cls-1" d="M29,384.41c-3.9.56-7.81,1.01-11.71,1.34,2.01,4.01,4.2,7.87,6.55,11.58,1.63-4.34,3.35-8.65,5.16-12.92Z"/>
    <path class="cls-1" d="M60.72,420.63c-4.08,1.66-8.2,3.24-12.33,4.71,3.29,2.75,6.73,5.32,10.32,7.72.57-4.15,1.24-8.29,2.01-12.43Z"/>
    <path class="cls-1" d="M105.49,441.49c-4,2.64-8.05,5.22-12.16,7.72,4.39,1.32,8.9,2.44,13.54,3.36-.58-3.66-1.04-7.35-1.38-11.07Z"/>
    <path class="cls-2" d="M141.89,384.3c-10.89,19.62-21.78,39.24-32.67,58.87.26,2.17.56,4.34.91,6.49,13.47,2.53,27.98,3.37,43.37,2.37,7.76-21.79,15.52-43.59,23.29-65.38-12.47.81-24.15-.02-34.9-2.35Z"/>
    <path class="cls-2" d="M28.2,380.72c17.18-14.18,34.35-28.36,51.53-42.54-4.99-9.4-8.61-20-10.71-31.66-18.99,11.22-37.99,22.45-56.98,33.67-1.77,2.8-3.51,5.62-5.23,8.48,2.5,11.91,6.21,22.97,11.01,33.09,3.46-.25,6.92-.6,10.38-1.03Z"/>
    <path class="cls-2" d="M100.77,441.06c11.58-19.45,23.17-38.9,34.75-58.35-10.36-2.93-19.76-7.33-28.05-13.08-14.73,18.13-29.47,36.26-44.2,54.39-.37,2.28-.72,4.57-1.03,6.86,9.47,6.16,19.95,11.08,31.33,14.65,2.42-1.47,4.81-2.96,7.19-4.47Z"/>
    <path class="cls-2" d="M11.26,330.01c18.89-10.29,37.77-20.58,56.66-30.87-1.46-12.09-1.36-25.22.45-39.23-21.13,6.76-42.26,13.51-63.39,20.27-2.2,16.97-2.55,32.98-1.21,47.91,2.47.71,4.97,1.35,7.49,1.92Z"/>
    <path class="cls-2" d="M57.18,418.42c15.1-17.51,30.2-35.02,45.29-52.52-7.82-6.29-14.49-13.9-19.88-22.69-17.46,15.23-34.93,30.46-52.39,45.69-.95,2.37-1.88,4.76-2.77,7.15,6.22,9.52,13.59,17.97,22.02,25.24,2.59-.91,5.16-1.86,7.73-2.85Z"/>
  </g>
  <g>
    <path class="cls-1" d="M508.88,334.28c3.43-.65,6.83-1.43,10.19-2.34-.54,5.11-1.28,10.09-2.21,14.94-2.59-4.26-5.26-8.46-7.98-12.6Z"/>
    <path class="cls-1" d="M492.46,384.41c3.9.56,7.81,1.01,11.71,1.34-2.01,4.01-4.2,7.87-6.55,11.58-1.63-4.34-3.35-8.65-5.16-12.92Z"/>
    <path class="cls-1" d="M460.74,420.63c4.08,1.66,8.2,3.24,12.33,4.71-3.29,2.75-6.73,5.32-10.32,7.72-.57-4.15-1.24-8.29-2.01-12.43Z"/>
    <path class="cls-1" d="M415.97,441.49c4,2.64,8.05,5.22,12.16,7.72-4.39,1.32-8.9,2.44-13.54,3.36.58-3.66,1.04-7.35,1.38-11.07Z"/>
    <path class="cls-2" d="M379.57,384.3c10.89,19.62,21.78,39.24,32.67,58.87-.26,2.17-.56,4.34-.91,6.49-13.47,2.53-27.98,3.37-43.37,2.37-7.76-21.79-15.52-43.59-23.29-65.38,12.47.81,24.15-.02,34.9-2.35Z"/>
    <path class="cls-2" d="M493.26,380.72c-17.18-14.18-34.35-28.36-51.53-42.54,4.99-9.4,8.61-20,10.71-31.66,18.99,11.22,37.99,22.45,56.98,33.67,1.77,2.8,3.51,5.62,5.23,8.48-2.5,11.91-6.21,22.97-11.01,33.09-3.46-.25-6.92-.6-10.38-1.03Z"/>
    <path class="cls-2" d="M420.69,441.06c-11.58-19.45-23.17-38.9-34.75-58.35,10.36-2.93,19.76-7.33,28.05-13.08,14.73,18.13,29.47,36.26,44.2,54.39.37,2.28.72,4.57,1.03,6.86-9.47,6.16-19.95,11.08-31.33,14.65-2.42-1.47-4.81-2.96-7.19-4.47Z"/>
    <path class="cls-2" d="M510.21,330.01c-18.89-10.29-37.77-20.58-56.66-30.87,1.46-12.09,1.36-25.22-.45-39.23,21.13,6.76,42.26,13.51,63.39,20.27,2.2,16.97,2.55,32.98,1.21,47.91-2.47.71-4.97,1.35-7.49,1.92Z"/>
    <path class="cls-2" d="M464.28,418.42c-15.1-17.51-30.2-35.02-45.29-52.52,7.82-6.29,14.49-13.9,19.88-22.69,17.46,15.23,34.93,30.46,52.39,45.69.95,2.37,1.88,4.76,2.77,7.15-6.22,9.52-13.59,17.97-22.02,25.24-2.59-.91-5.16-1.86-7.73-2.85Z"/>
  </g>
  <ellipse class="cls-2" cx="302.16" cy="387.81" rx="23.62" ry="34.06"/>
  <ellipse class="cls-1" cx="302.16" cy="387.81" rx="18.83" ry="27.16"/>
  <ellipse class="cls-2" cx="302.16" cy="387.81" rx="7.61" ry="10.98"/>
  <circle cx="302.16" cy="387.81" r="5.12"/>
  <ellipse class="cls-2" cx="224.25" cy="387.81" rx="23.62" ry="34.06"/>
  <ellipse class="cls-1" cx="224.25" cy="387.81" rx="18.83" ry="27.16"/>
  <ellipse class="cls-2" cx="224.25" cy="387.81" rx="7.61" ry="10.98"/>
  <circle cx="224.25" cy="387.81" r="5.12"/>
  <polygon class="cls-1" points="263.71 451.79 238.93 407.58 263.71 394.2 288.48 407.58 263.71 451.79"/>
  <path class="cls-1" d="M318.97,472.43c3.77-.55,7.53-1.13,11.28-1.79l-1.38-7.88c-1.23.22-2.48.41-3.71.61,0-.11.02-.22.02-.33,0-5.64-4.57-10.21-10.21-10.21s-10.21,4.57-10.21,10.21c0,1.08.17,2.13.48,3.11-4.66.52-9.34.95-14.02,1.31.08-.51.13-1.03.13-1.57,0-5.64-4.57-10.21-10.21-10.21s-10.21,4.57-10.21,10.21c0,.89.13,1.76.34,2.58-3.17.08-6.34.13-9.51.13-1.83,0-3.66-.03-5.49-.06.23-.85.36-1.73.36-2.65,0-5.64-4.57-10.21-10.21-10.21s-10.21,4.57-10.21,10.21c0,.64.07,1.27.18,1.88-4.75-.31-9.49-.73-14.22-1.21.4-1.1.64-2.28.64-3.52,0-5.64-4.57-10.21-10.21-10.21s-10.21,4.57-10.21,10.21c0,.34.02.67.05,1-2.6-.4-5.2-.83-7.79-1.28l-1.38,7.88c22.52,3.95,45.57,5.96,68.5,5.96,17.36,0,34.79-1.15,52-3.43.4.05.8.08,1.22.08,1.42,0,2.78-.29,4.01-.82Z"/>
  <polygon class="cls-2" points="230.35 462.41 236.41 451.92 224.29 451.92 230.35 462.41"/>
  <polygon class="cls-2" points="298.05 462.41 304.11 451.92 291.99 451.92 298.05 462.41"/>
  <polygon class="cls-2" points="263.71 464.14 267.73 457.16 259.68 457.16 263.71 464.14"/>
  <circle class="cls-1" cx="193.24" cy="374.43" r="5.83"/>
  <circle class="cls-1" cx="234.4" cy="349.77" r="3.98"/>
  <circle class="cls-1" cx="247.06" cy="362.21" r="3.98"/>
  <circle class="cls-1" cx="252.52" cy="378.23" r="3.98"/>
  <circle class="cls-1" cx="331.88" cy="374.43" r="5.83"/>
  <circle class="cls-1" cx="290.72" cy="349.77" r="3.98"/>
  <circle class="cls-1" cx="278.06" cy="362.21" r="3.98"/>
  <circle class="cls-1" cx="272.6" cy="378.23" r="3.98"/>
  <path class="cls-1" d="M243.08,446.38l-10.31-31.59c-22.55,1.31-44.09-12.84-53.33-16.85-.3,3.26-.47,6.56-.47,9.91,0,11.76,1.93,23.02,5.42,33.39,14.09,12.89,58.69,5.14,58.69,5.14Z"/>
  <path class="cls-2" d="M216.05,448.69c14.12-.07,27.03-2.31,27.03-2.31l-6.64-20.36c-22.36.05-43.58-5.57-57.09-9.15.72,8.51,2.45,16.68,5.04,24.37,5.75,5.26,16.59,7.09,27.41,7.4,1.42.03,2.84.04,4.26.05Z"/>
  <path class="cls-1" d="M280.56,446.38l10.31-31.59c22.55,1.31,44.09-12.84,53.33-16.85.3,3.26.47,6.56.47,9.91,0,11.76-1.93,23.02-5.42,33.39-14.09,12.89-58.69,5.14-58.69,5.14Z"/>
  <path class="cls-2" d="M307.59,448.69c-14.12-.07-27.03-2.31-27.03-2.31l6.64-20.36c22.36.05,43.58-5.57,57.09-9.15-.72,8.51-2.45,16.68-5.04,24.37-5.75,5.26-16.59,7.09-27.41,7.4-1.42.03-2.84.04-4.26.05Z"/>
</svg>