<?xml version="1.0" encoding="UTF-8"?>
<svg id="Capa_1" data-name="Capa 1" xmlns="http://www.w3.org/2000/svg" viewBox="0 0 521.46 895.65">
  <defs>
    <style>
      .cls-1 {
        stroke-width: 3px;
      }

      .cls-1, .cls-2 {
        fill: none;
        stroke: #ffe266;
        stroke-miterlimit: 10;
      }

      .cls-2 {
        stroke-linecap: round;
        stroke-width: 5px;
      }

      .cls-3 {
        fill: #ffe266;
      }

      .cls-4 {
        fill: #fcc305;
      }
    </style>
  </defs>
  <line class="cls-1" x1="236.83" y1="810.17" x2="281" y2="766.01"/>
  <line class="cls-1" x1="286.66" y1="810.17" x2="237.51" y2="761.02"/>
  <path class="cls-4" d="M274.78,783.1c0,25.68,23.73,46.5,53,46.5,4.02,0,7.93-.41,11.69-1.15,3.26-10.06,5.05-20.92,5.05-32.26,0-22.62-7.08-43.35-18.85-59.55-28.29.97-50.89,21.39-50.89,46.45Z"/>
  <path class="cls-2" d="M321.78,758.6s19,21,12,54"/>
  <circle class="cls-3" cx="302.78" cy="788.6" r="19"/>
  <circle class="cls-3" cx="318.78" cy="754.6" r="8"/>
  <circle cx="296.78" cy="788.6" r="6"/>
  <circle cx="318.78" cy="754.6" r="4"/>
  <rect class="cls-3" x="275.6" y="743.76" width="29.36" height="16.18" rx="8.09" ry="8.09" transform="translate(-446.62 425.47) rotate(-45)"/>
  <path class="cls-4" d="M248.7,783.1c0,25.68-23.73,46.5-53,46.5-4.02,0-7.93-.41-11.69-1.15-3.26-10.06-5.05-20.92-5.05-32.26,0-22.62,7.08-43.35,18.85-59.55,28.29.97,50.89,21.39,50.89,46.45Z"/>
  <path class="cls-2" d="M201.7,758.6s-19,21-12,54"/>
  <circle class="cls-3" cx="220.7" cy="788.6" r="19"/>
  <circle class="cls-3" cx="204.7" cy="754.6" r="8"/>
  <circle cx="228.72" cy="788.6" r="6"/>
  <circle cx="204.7" cy="754.6" r="4"/>
  <rect class="cls-3" x="218.52" y="743.76" width="29.36" height="16.18" rx="8.09" ry="8.09" transform="translate(-133.55 1448.38) rotate(-135)"/>
  <path class="cls-3" d="M313.06,856.02l13.19-14.39,3.25,8.41c.67-1.08,1.32-2.18,1.95-3.29l-3.26-8.46c-.19-.48-.61-.84-1.12-.93-.51-.1-1.03.08-1.38.46l-15.27,16.66-5.02-19.01c-.14-.54-.58-.96-1.12-1.08s-1.12.07-1.48.5l-16.59,19.79c-11.38-27.1-11.64-27.1-12.91-27.1q-1.36,0-7.1,15.2c-1.51,4.01-3,8.02-4.01,10.75l-11.78-26.68c-.26-.59-.86-.95-1.5-.89-.64.05-1.17.51-1.33,1.13l-6.34,25.48-12.77-20.1c-.31-.48-.86-.75-1.43-.69-.57.06-1.05.45-1.25.98l-7.45,20.75-9.67-14.89c-.32-.5-.91-.76-1.49-.66-.59.09-1.06.52-1.21,1.1l-4.52,16.96h-3.41c.75,1.02,1.51,2.02,2.29,3h122.88c.78-.98,1.54-1.98,2.29-3h-12.41ZM204.53,856.02l3.44-12.93,8.4,12.93h-11.84ZM220.61,856.02l6.95-19.36,12.3,19.36h-19.25ZM243.45,856.02l5.96-23.96,10.58,23.96h-16.54ZM264.45,856.02c2.94-7.97,6.94-18.66,8.91-23.53,2.21,4.83,6.78,15.53,10.15,23.53h-19.06ZM288.98,856.02l14.24-16.99,4.48,16.99h-18.73Z"/>
  <path class="cls-4" d="M298.5,831.34c-22.21-8.15-48.38-15.56-78.02-.18-9.47,4.91-21.79,5.88-33.6,5.02,1.49,3.56,3.16,7.01,5.02,10.31.79.02,1.57.03,2.36.03,10.83,0,21.7-1.74,30.83-6.47,26.04-13.5,48.84-7.06,69.98.7,12.47,4.58,26.72,4.57,37.8,3.44,1.81-3.44,3.44-7.02,4.86-10.72-10.42,1.57-26.26,2.65-39.21-2.1Z"/>
  <polygon class="cls-3" points="261.75 779.48 270.14 764.95 253.36 764.95 261.75 779.48"/>
  <polygon class="cls-3" points="261.75 791.34 253.36 805.87 270.14 805.87 261.75 791.34"/>
</svg>