<?xml version="1.0" encoding="UTF-8"?>
<svg id="Capa_3" data-name="Capa 3" xmlns="http://www.w3.org/2000/svg" viewBox="0 0 521.46 895.65">
  <defs>
    <style>
      .cls-1 {
        fill: #ffe266;
      }

      .cls-2 {
        fill: none;
        stroke: #ffe266;
        stroke-linejoin: bevel;
        stroke-width: 3px;
      }

      .cls-3 {
        fill: #fcc305;
      }
    </style>
  </defs>
  <circle class="cls-1" cx="274.78" cy="603.17" r="4.76"/>
  <circle cx="273.61" cy="601.95" r="3.01"/>
  <circle class="cls-1" cx="248.71" cy="603.17" r="4.76"/>
  <circle cx="249.89" cy="601.95" r="3.01"/>
  <g>
    <path class="cls-3" d="M230.32,612.67h-16.6c3.71,3.46,6.2,8.22,6.7,13.56h13.53c-.28-4.85-1.56-9.44-3.63-13.56Z"/>
    <path class="cls-3" d="M213.71,643.79h16.6c2.07-4.12,3.35-8.71,3.63-13.56h-13.53c-.5,5.33-2.99,10.1-6.7,13.56Z"/>
    <path class="cls-3" d="M288.76,612.67h-54.03c1.84,4.19,2.97,8.76,3.21,13.56h47.6c.25-4.8,1.37-9.37,3.21-13.56Z"/>
    <path class="cls-3" d="M234.73,643.79h54.03c-1.84-4.19-2.97-8.76-3.21-13.56h-47.6c-.25,4.8-1.37,9.37-3.21,13.56Z"/>
    <path class="cls-3" d="M199.2,631.67c0,5.45,3.6,10.06,8.55,11.58,4.67-2.67,7.98-7.44,8.63-13.03h-17.18v1.45Z"/>
    <path class="cls-3" d="M207.76,613.2c-4.95,1.52-8.55,6.13-8.55,11.58v1.45h17.18c-.65-5.58-3.96-10.36-8.63-13.03Z"/>
    <path class="cls-3" d="M324.29,624.78c0-5.45-3.6-10.06-8.55-11.58-4.67,2.67-7.98,7.44-8.63,13.03h17.18v-1.45Z"/>
    <path class="cls-3" d="M315.74,643.25c4.95-1.52,8.55-6.13,8.55-11.58v-1.45h-17.18c.65,5.58,3.96,10.36,8.63,13.03Z"/>
    <path class="cls-3" d="M293.18,643.79h16.6c-3.71-3.46-6.2-8.22-6.7-13.56h-13.53c.28,4.85,1.56,9.44,3.63,13.56Z"/>
    <path class="cls-3" d="M309.78,612.67h-16.6c-2.07,4.12-3.35,8.71-3.63,13.56h13.53c.5-5.33,2.99-10.1,6.7-13.56Z"/>
  </g>
  <path class="cls-3" d="M236.7,571.04c.5,1.95.81,4.13.81,6.51,0,9.53-5.08,15.85-6.45,17.44-1.36-1.59-6.45-7.91-6.45-17.44,0-2.38.32-4.55.81-6.51h-30.52v3.8c0,11.98,9.71,21.69,21.69,21.69h21.19c3.39,0,6.14-2.75,6.14-6.14v-19.35h-7.25Z"/>
  <path class="cls-1" d="M243.95,576.77l8.94-11.19s-16.58-22.34-51.97-22.37c-6.92,0-26.54.51-28.78,15.86,7.22,8.34,22.78,15.76,22.78,15.76,0,0,37.75-9.05,49.03,1.93Z"/>
  <path class="cls-3" d="M290.59,571.04c-.5,1.95-.81,4.13-.81,6.51,0,9.53,5.08,15.85,6.45,17.44,1.36-1.59,6.45-7.91,6.45-17.44,0-2.38-.32-4.55-.81-6.51h30.52v3.8c0,11.98-9.71,21.69-21.69,21.69h-21.19c-3.39,0-6.14-2.75-6.14-6.14v-19.35h7.25Z"/>
  <path class="cls-1" d="M283.35,576.77l-8.94-11.19s16.58-22.34,51.97-22.37c6.92,0,26.54.51,28.78,15.86-7.22,8.34-22.78,15.76-22.78,15.76,0,0-37.75-9.05-49.03,1.93Z"/>
  <g>
    <path class="cls-3" d="M323.18,666.23c.39-.49.76-.99,1.14-1.49h-15.68v-4.33h11.41v-6.97h-23.82v11.3h-18.3v-4.33h11.41v-6.97h-23.82v11.3h-18.3v-4.33h11.41v-6.97h-23.82v11.3h-18.3v-4.33h11.41v-6.97h-23.82v11.3h-4.9c.38.5.75,1,1.14,1.49h-8.74c-1,0-1.98.1-2.93.26h17.18v-11.3h20.33v3.48h-11.41v7.83h21.8v-11.3h20.33v3.48h-11.41v7.83h21.8v-11.3h20.33v3.48h-11.41v7.83h21.8v-11.3h20.33v3.48h-11.41v7.83h21.8v-.26h-5.5Z"/>
    <path class="cls-3" d="M326.93,653.43v7.71c.6-.86,1.18-1.73,1.75-2.62v-3.34h2.05c.34-.58.68-1.16,1.01-1.75h-4.81Z"/>
    <path class="cls-3" d="M192.76,655.18h2.68v3.48h-.54c.38.59.76,1.17,1.15,1.75h1.14v-6.97h-5.44c.33.59.67,1.17,1.01,1.75Z"/>
  </g>
  <polygon class="cls-1" points="274.78 665.62 261.75 649.38 248.71 665.62 248.71 626.23 274.78 626.23 274.78 665.62"/>
  <polyline class="cls-2" points="234.29 539.45 244.8 552.19 254.41 540.53 264.03 552.19 273.6 540.58 283.18 552.19 293.68 539.45"/>
</svg>